
              <svg id="sw-js-blob-svg" viewBox="0 0 100 100" xmlns="http://www.w3.org/2000/svg" version="1.1">
                    <defs> 
                        <linearGradient id="sw-gradient" x1="0" x2="1" y1="1" y2="0">
                            <stop id="stop1" stop-color="rgba(1.395, 255, 94.923, 0.07)" offset="0%"></stop>
                            <stop id="stop2" stop-color="rgba(26.242, 209.962, 93.997, 0.65)" offset="100%"></stop>
                        </linearGradient>
                    </defs>
                <path fill="url(#sw-gradient)" d="M26.8,-29.8C34.7,-25.3,41,-16.8,42.1,-7.8C43.2,1.2,39.1,10.7,33.8,19.2C28.5,27.8,22.1,35.4,13.5,39.6C4.9,43.8,-5.8,44.6,-13.3,40.3C-20.8,35.9,-25.1,26.4,-29,17.7C-32.9,8.9,-36.5,0.9,-34.8,-5.7C-33.1,-12.3,-26.1,-17.6,-19.4,-22.2C-12.8,-26.9,-6.4,-30.9,1.5,-32.8C9.5,-34.6,18.9,-34.2,26.8,-29.8Z" width="100%" height="100%" transform="translate(50 50)" stroke-width="0" style="transition: all 0.3s ease 0s;" stroke="url(#sw-gradient)"></path>
              </svg>