<?xml version="1.0" standalone="no"?>
<!DOCTYPE svg PUBLIC "-//W3C//DTD SVG 20010904//EN"
 "http://www.w3.org/TR/2001/REC-SVG-20010904/DTD/svg10.dtd">
<svg version="1.0" xmlns="http://www.w3.org/2000/svg"
 width="292.000000pt" height="82.000000pt" viewBox="0 0 292.000000 82.000000"
 preserveAspectRatio="xMidYMid meet">
<metadata>
Created by potrace 1.10, written by Peter Selinger 2001-2011
</metadata>
<g transform="translate(0.000000,82.000000) scale(0.050000,-0.050000)"
fill="#2563eb" stroke="none">
<path d="M381 1458 c-335 -134 -370 -600 -61 -818 165 -117 512 -45 618 127
54 88 55 85 -38 133 l-79 40 -66 -72 c-87 -94 -215 -115 -300 -48 -81 63 -72
72 120 131 430 131 390 111 376 177 -50 254 -340 422 -570 330z m246 -219 c79
-62 66 -85 -72 -133 -225 -78 -215 -77 -214 -2 1 149 168 228 286 135z"/>
<path d="M1240 850 l0 -630 130 0 130 0 0 630 0 630 -130 0 -130 0 0 -630z"/>
<path d="M1944 1154 c-421 -117 -440 -770 -26 -911 287 -97 645 63 470 210
l-78 65 -44 -42 c-105 -98 -365 -44 -382 80 -7 44 -6 44 315 44 l321 0 0 83
c0 326 -278 554 -576 471z m218 -205 c33 -17 68 -54 79 -81 39 -104 34 -108
-171 -108 l-190 0 0 52 c0 124 158 201 282 137z"/>
<path d="M3030 1140 c-44 -22 -97 -64 -117 -95 l-36 -55 10 75 10 75 -139 0
-139 0 6 -455 5 -455 130 0 130 0 4 307 c4 340 27 404 144 402 133 -1 162 -78
162 -428 l0 -291 129 0 128 0 7 318 c7 351 24 402 137 402 130 0 148 -43 159
-393 l10 -317 125 -6 125 -6 0 397 c0 431 -6 456 -116 513 -143 72 -295 54
-414 -51 l-69 -61 -52 62 c-85 100 -214 124 -339 62z"/>
<path d="M4321 1128 c-135 -36 -127 -25 -99 -138 l24 -94 72 13 c254 47 327
32 374 -81 35 -84 28 -100 -30 -69 -139 74 -437 9 -517 -113 -190 -291 260
-576 532 -337 l47 41 -7 -60 -7 -60 120 0 120 0 6 296 c10 570 -158 730 -635
602z m328 -511 c72 -33 72 -142 1 -189 -77 -50 -200 -47 -254 7 -110 110 92
255 253 182z"/>
<path d="M5113 1147 c-7 -8 -13 -219 -13 -470 l0 -457 130 0 130 0 0 241 c0
231 12 294 69 351 34 34 145 88 180 88 25 0 31 26 31 133 l0 132 -75 -12 c-51
-8 -96 -34 -140 -82 l-65 -70 0 67 c0 43 -11 72 -32 80 -42 16 -198 15 -215
-1z"/>
<path d="M680 482 c-288 -94 -338 -126 -275 -178 20 -16 99 1 316 69 314 100
362 126 320 176 -34 41 -26 42 -361 -67z"/>
<path d="M741 311 c-219 -68 -273 -108 -221 -160 27 -26 56 -21 257 43 228 74
268 102 223 156 -30 36 -5 40 -259 -39z"/>
</g>
</svg>
