<?xml version="1.0" standalone="no"?>
<!DOCTYPE svg PUBLIC "-//W3C//DTD SVG 20010904//EN"
 "http://www.w3.org/TR/2001/REC-SVG-20010904/DTD/svg10.dtd">
<svg version="1.0" xmlns="http://www.w3.org/2000/svg"
 width="300.000000pt" height="181.000000pt" viewBox="0 0 300.000000 181.000000"
 preserveAspectRatio="xMidYMid meet">
<metadata>
Created by potrace 1.10, written by Peter Selinger 2001-2011
</metadata>
<g transform="translate(0.000000,181.000000) scale(0.050000,-0.050000)"
fill="#000000" stroke="none">
<path d="M4169 3105 c-220 -283 -504 -656 -630 -829 -126 -173 -233 -315 -239
-314 -5 0 -123 159 -262 354 -241 340 -254 354 -325 360 -96 8 -113 43 217
-416 171 -238 285 -413 276 -427 -8 -12 -147 -206 -310 -429 -336 -460 -319
-428 -222 -420 71 6 84 20 342 376 147 204 274 372 282 375 7 3 137 -166 289
-375 265 -367 277 -380 344 -380 92 0 108 -31 -232 441 -166 229 -303 423
-303 430 -2 13 414 621 919 1345 157 225 285 412 285 416 0 37 -83 -61 -431
-507z"/>
<path d="M0 1830 l0 -850 60 0 60 0 0 763 0 763 513 -748 c520 -758 1254
-1758 1289 -1758 11 0 -38 83 -108 185 -70 102 -476 705 -902 1340 -773 1155
-774 1155 -843 1155 l-69 0 0 -850z"/>
<path d="M1400 1830 l0 -850 590 0 590 0 0 50 0 50 -520 0 -520 0 0 360 0 360
480 0 480 0 0 60 0 60 -485 0 -485 0 6 320 6 320 509 0 509 0 0 60 0 60 -580
0 -580 0 0 -850z"/>
<path d="M4024 2625 l6 -55 295 -6 295 -5 0 -790 0 -789 70 0 70 0 0 790 0
790 290 0 290 0 0 60 0 60 -661 0 -662 0 7 -55z"/>
<path d="M5790 1476 c-100 -56 -81 -216 25 -216 68 0 129 -41 105 -70 -32 -38
-88 -38 -120 0 -27 32 -100 41 -100 12 0 -54 79 -111 155 -111 176 0 209 171
45 231 -49 18 -90 46 -90 61 0 39 88 47 102 8 18 -46 88 -40 88 8 0 72 -133
121 -210 77z"/>
<path d="M5580 1331 c0 -158 -20 -195 -78 -143 -48 43 -82 40 -82 -7 0 -44 71
-101 124 -101 82 0 116 70 116 240 0 147 -3 160 -40 160 -36 0 -40 -13 -40
-149z"/>
<path d="M5305 1186 c-41 -15 -30 -86 14 -86 21 0 45 10 52 22 17 28 -33 76
-66 64z"/>
</g>
</svg>
