<?xml version="1.0" encoding="UTF-8"?>
<svg xmlns="http://www.w3.org/2000/svg" xmlns:xlink="http://www.w3.org/1999/xlink" width="328px" height="328px" viewBox="0 0 328 328" version="1.1">
<g id="surface1">
<path style=" stroke:none;fill-rule:nonzero;fill:rgb(100%,92.941176%,87.45098%);fill-opacity:1;" d="M 269.265625 27.980469 C 295.707031 46.65625 314.976562 75.597656 323.175781 106.585938 C 331.167969 137.785156 328.300781 171.035156 321.332031 206.128906 C 314.15625 241.226562 302.679688 277.964844 277.875 300.132812 C 253.074219 322.503906 214.539062 330.300781 178.257812 327.429688 C 141.980469 324.554688 107.75 310.804688 81.71875 289.046875 C 55.480469 267.085938 37.441406 236.917969 22.070312 202.847656 C 6.695312 168.777344 -6.011719 130.601562 3.007812 98.378906 C 11.820312 65.949219 42.15625 39.472656 74.542969 22.644531 C 107.132812 6.019531 141.570312 -0.753906 175.59375 0.0664062 C 209.621094 0.886719 243.03125 9.300781 269.265625 27.980469 Z M 269.265625 27.980469 "/>
</g>
</svg>
